<svg width="141" height="181" viewBox="0 0 141 181" fill="none" xmlns="http://www.w3.org/2000/svg">
<g filter="url(#filter0_d_1_523)">
<path d="M70.3101 26C48.0281 26 30 43.2452 30 64.4962C30 85.7472 70.3101 146.649 70.3101 146.649C70.3101 146.649 110.62 85.7472 110.62 64.4962C110.62 43.2452 92.592 26 70.3101 26Z" fill="#F58021"/>
<path fill-rule="evenodd" clip-rule="evenodd" d="M81.5239 60.5992L81.5253 60.6021C82.0282 61.6396 82.5312 62.6772 83.0524 63.7606C82.9204 63.8649 82.7867 63.9727 82.6509 64.0821L82.6508 64.0822C82.3443 64.3293 82.0276 64.5846 81.6978 64.8267C81.3311 65.0942 80.9675 65.3655 80.6041 65.6367L80.604 65.6368C79.7064 66.3065 78.8101 66.9754 77.872 67.5837C74.4946 69.7802 70.7695 70.6717 66.7606 70.3225C65.7813 70.2397 64.7471 69.8997 64.3352 69.6148C64.5728 67.963 64.8013 66.3569 65.0298 64.751L65.0308 64.744C65.0033 64.7348 64.9736 64.7279 64.9439 64.721L64.9438 64.721C64.9141 64.7141 64.8843 64.7072 64.8569 64.698C64.7677 64.8798 64.6792 65.0616 64.5909 65.2431C64.371 65.6949 64.1518 66.1454 63.9233 66.5912C63.3298 67.7688 62.9318 69.0194 62.5329 70.2727L62.5329 70.2727C62.4212 70.6235 62.3095 70.9745 62.1935 71.3242C61.4612 73.5023 60.1524 75.1749 57.9283 75.9928C57.8185 76.0388 57.727 76.2226 57.6812 76.3604C57.5915 76.6462 57.5118 76.9354 57.4322 77.2243C57.3248 77.6136 57.2176 78.0025 57.0863 78.3823C56.5829 79.8527 55.6402 80.9923 54.3679 81.8654C53.8005 82.2514 53.233 82.6466 52.693 83.0693C52.2262 83.4278 52.2445 83.584 52.7021 83.9424C52.7917 84.0126 52.8817 84.0817 52.9716 84.1507C53.2582 84.3707 53.5426 84.589 53.8005 84.8339C54.2215 85.2382 54.4137 85.7529 54.2581 86.3411C54.2215 86.4789 54.011 86.6627 53.8828 86.6627C50.8808 86.6811 47.8695 86.6811 44.8675 86.6719C44.7576 86.6719 44.602 86.6352 44.538 86.5616C44.446 86.4492 44.3519 86.3372 44.2574 86.2249L44.2574 86.2249C43.9196 85.8231 43.5782 85.417 43.3207 84.9717C43.1559 84.6868 43.1376 84.2089 43.2475 83.8873C44.3092 80.6431 45.6729 77.5644 48.2448 75.2025C48.3546 75.1014 48.4187 74.8808 48.4279 74.7246C48.4919 72.3903 48.7665 70.0743 49.3614 67.8227C49.874 65.8744 50.4231 63.926 51.3933 62.1339C53.1781 58.8622 55.4846 56.1327 59.0266 54.6622C62.0745 53.4032 65.0491 53.5962 67.9505 55.085C68.3488 55.2912 68.709 55.5739 69.0599 55.8493C69.2251 55.979 69.3882 56.107 69.5522 56.2246C69.2227 55.5077 68.6461 54.9196 68.0237 54.3773C68.6098 54.1535 69.1981 53.9368 69.7854 53.7205C72.3803 52.7648 74.9549 51.8165 77.2313 50.2877C77.3315 50.6378 77.4299 50.9914 77.5289 51.347L77.529 51.3475C77.6561 51.8039 77.784 52.2635 77.9177 52.7231C77.9543 52.8334 78.0276 52.9345 78.1191 53.0264C77.936 51.8868 77.936 50.7472 78.3662 49.6995C78.7689 48.707 79.254 47.7052 79.8764 46.8413C81.4049 44.746 83.2446 42.9263 85.2948 41.3364L85.2949 41.3363C85.3772 41.272 85.4596 41.2077 85.551 41.1434C85.698 41.0492 85.8436 40.9488 85.9896 40.8482L85.9897 40.8482C86.698 40.36 87.4136 39.8668 88.3243 40.0497C89.8253 40.3438 91.0793 41.1342 91.9396 42.43C92.1867 42.7976 92.4705 43.0549 92.864 43.1928C93.8891 43.5512 94.6579 44.167 95.1522 45.1687C95.3314 45.5347 95.5898 45.8588 95.8486 46.1835C95.9732 46.3398 96.0979 46.4962 96.2139 46.6575C96.4519 46.9884 96.4976 47.2641 96.2322 47.6501C96.0125 47.9717 95.9027 48.4037 95.8386 48.7989C95.7563 49.2676 95.9393 49.5708 96.4336 49.8282C97.7241 50.4899 98.4746 51.9695 97.7607 53.4675C97.6417 53.7156 97.5319 53.9638 97.4312 54.2211C96.9553 55.4526 96.0491 55.8846 94.8044 55.4526C94.7916 55.4483 94.7786 55.444 94.7655 55.4398C94.7575 55.4372 94.7495 55.4345 94.7415 55.4319C94.678 55.4113 94.6145 55.3906 94.5664 55.3699C94.3376 55.6916 94.1088 56.004 93.8617 56.3349C93.8265 56.2918 93.7964 56.2604 93.7734 56.2364C93.7424 56.2041 93.7244 56.1853 93.7244 56.1694C93.7976 55.3791 93.3217 54.9104 92.7908 54.4325C90.3104 52.1901 87.2717 52.5944 85.1941 53.8903C85.4277 53.8427 85.6591 53.7908 85.8898 53.739C86.3281 53.6407 86.764 53.5429 87.2077 53.4767C89.8436 53.1091 92.1318 54.2946 93.3491 56.6657C94.1912 58.3016 94.7861 60.011 94.6396 61.9042L94.638 61.9263V61.9264C94.6111 62.2971 94.5817 62.701 94.4291 63.0254C93.8983 64.165 94.063 65.3138 94.3559 66.4442L94.4099 66.6548L94.4099 66.6549C94.6847 67.7289 94.9669 68.8315 95.4908 69.7802C97.5136 73.4288 97.6783 77.3714 97.5319 81.3691C97.4678 83.0877 96.9187 84.6133 95.5091 85.7253C94.722 86.3503 93.88 86.7822 92.8274 86.6995C92.3423 86.6627 91.8481 86.6535 91.363 86.6995C90.4477 86.8006 89.8162 86.3411 89.2762 85.6978C88.6904 85.0085 88.425 84.2089 88.5897 83.3083C88.6355 83.0693 88.8094 82.7752 89.0107 82.665C89.2637 82.53 89.4484 82.7173 89.6355 82.907C89.6651 82.9369 89.6947 82.967 89.7247 82.9958C90.0067 83.2699 90.3793 83.4714 90.7344 83.6633L90.7344 83.6634L90.7406 83.6667C91.0518 83.8321 91.2165 83.6943 91.2532 83.345C91.2898 82.9315 91.1616 82.5823 90.8504 82.3157C89.1023 80.8177 88.004 78.8602 87.0155 76.8292C86.2558 75.2576 85.7707 73.6126 85.5968 71.8664C85.4687 70.5522 85.6975 69.2748 85.9446 67.9973C86.0636 67.4183 86.1826 66.8302 86.2192 66.2328C86.3016 65.0472 85.8897 64.0455 84.8737 63.4114C83.6198 62.6302 82.5032 61.6928 81.6063 60.5164C81.6154 60.544 81.5696 60.5716 81.5239 60.5992ZM84.2056 64.7714C84.7364 65.2033 84.9286 65.6996 84.8188 66.3154C84.7511 66.7135 84.6766 67.1106 84.602 67.5077L84.602 67.5079C84.4649 68.2381 84.3279 68.9685 84.233 69.7066C83.9218 72.1971 84.4984 74.5498 85.4595 76.8198C85.6334 77.2334 85.6517 77.5642 85.4686 77.9778C84.6357 79.871 83.7296 81.7182 82.5581 83.4368C81.0387 85.6609 78.9153 86.6902 76.2611 86.6902C76.1042 86.6902 75.9482 86.6927 75.7925 86.6951H75.7924C75.4303 86.7009 75.0699 86.7067 74.7051 86.681C74.522 86.6718 74.2932 86.5523 74.1926 86.4053C73.3414 85.2473 73.4878 82.8486 74.4671 81.7918C74.577 81.6723 74.8241 81.562 74.9614 81.608C75.0657 81.6454 75.1397 81.8047 75.2081 81.9519C75.2237 81.9855 75.239 82.0184 75.2543 82.0491C75.292 82.1249 75.3195 82.2085 75.3468 82.2916C75.3923 82.4301 75.4373 82.5672 75.5288 82.6648C75.6936 82.8578 75.9773 83.1335 76.1604 83.0968C76.3526 83.06 76.5448 82.72 76.6272 82.481C76.7095 82.2513 76.6821 81.9664 76.6363 81.7274C76.57 81.3909 76.4868 81.0569 76.4037 80.7235C76.2577 80.1372 76.1122 79.5529 76.0597 78.9612C75.8126 76.3052 76.0505 73.6951 77.1946 71.2413C77.46 70.6807 77.7621 70.1109 78.1557 69.633C78.5675 69.1184 79.0801 68.6681 79.6018 68.2637C80.1371 67.8413 80.6888 67.4419 81.2412 67.0419C81.6143 66.7717 81.9877 66.5013 82.3567 66.2235C82.7682 65.9089 83.1756 65.5862 83.5899 65.2579L83.5899 65.2578L83.5903 65.2575C83.7933 65.0967 83.9979 64.9345 84.2056 64.7714ZM64.5344 71.3055C64.2993 71.2357 64.0632 71.1655 63.8226 71.0945C63.7411 71.2719 63.6621 71.4518 63.5828 71.6324C63.4484 71.9383 63.3133 72.246 63.1636 72.5465C62.2575 74.3846 61.0677 75.9837 59.228 77.013C59.0815 77.0957 58.9809 77.3071 58.9259 77.4817C58.4866 78.9613 57.9375 80.3766 56.9215 81.5714C56.8483 81.6633 56.7842 81.8287 56.8117 81.9298C57.132 82.9499 57.4615 83.97 57.8185 84.9718C57.8825 85.1464 58.0747 85.3118 58.2486 85.4129C58.8985 85.7805 59.5483 86.1389 60.2165 86.479C60.4361 86.5893 60.6924 86.6904 60.9304 86.6904C62.8657 86.7041 64.796 86.7024 66.7288 86.7007C67.3736 86.7001 68.0187 86.6995 68.6644 86.6995H69.2318C69.1703 86.5728 69.1201 86.4493 69.0726 86.3323C68.9789 86.1014 68.8956 85.8963 68.7559 85.7438C68.4081 85.367 68.0145 85.0085 67.5935 84.7236C67.1982 84.4566 66.7689 84.2349 66.3413 84.014C66.2244 83.9536 66.1077 83.8933 65.9918 83.8322C65.5342 83.5841 65.3328 83.2164 65.3694 82.7018C65.3755 82.5793 65.3898 82.4567 65.404 82.3342C65.4111 82.2729 65.4182 82.2116 65.4243 82.1504C65.4523 81.8721 65.4872 81.593 65.522 81.3136C65.6012 80.6793 65.6806 80.0433 65.6806 79.4117C65.6806 78.0975 65.0948 76.9671 64.2619 75.9745C65.7081 74.8901 65.9918 73.3553 66.1291 71.7746C65.579 71.6158 65.0595 71.4615 64.5344 71.3055Z" fill="#20113D"/>
</g>
<defs>
<filter id="filter0_d_1_523" x="-9.30225" y="-8.56201" width="160" height="204" filterUnits="userSpaceOnUse" color-interpolation-filters="sRGB">
<feFlood flood-opacity="0" result="BackgroundImageFix"/>
<feColorMatrix in="SourceAlpha" type="matrix" values="0 0 0 0 0 0 0 0 0 0 0 0 0 0 0 0 0 0 127 0" result="hardAlpha"/>
<feOffset dy="4"/>
<feGaussianBlur stdDeviation="15"/>
<feColorMatrix type="matrix" values="0 0 0 0 0.960784 0 0 0 0 0.501961 0 0 0 0 0.129412 0 0 0 0.7 0"/>
<feBlend mode="normal" in2="BackgroundImageFix" result="effect1_dropShadow_1_523"/>
<feBlend mode="normal" in="SourceGraphic" in2="effect1_dropShadow_1_523" result="shape"/>
</filter>
</defs>
</svg>
