<svg width="141" height="181" viewBox="0 0 141 181" fill="none" xmlns="http://www.w3.org/2000/svg">
<g filter="url(#filter0_d_1_521)">
<path d="M70.3101 26C48.0281 26 30 43.2452 30 64.4962C30 85.7472 70.3101 146.649 70.3101 146.649C70.3101 146.649 110.62 85.7472 110.62 64.4962C110.62 43.2452 92.592 26 70.3101 26Z" fill="#F58021"/>
<path d="M60.7599 80.1254C60.9842 80.6172 61.3285 80.3834 61.6889 80.3754C62.2655 80.3592 62.6179 79.9722 63.1384 79.7465C62.682 79.6094 62.2976 79.4885 61.8891 79.3595C61.761 79.6255 61.6249 79.9158 61.4807 80.2141C61.4407 80.2141 61.3926 80.2141 61.3526 80.2141C61.3045 79.9964 61.2405 79.7787 61.2244 79.561C61.2084 79.303 61.1203 79.174 60.848 79.1659C60.6959 79.1579 60.5437 79.0611 60.3355 78.9805C60.1833 79.3836 60.0072 79.8352 59.7989 80.3915C59.4466 79.7787 59.5106 79.2063 59.5427 78.6499C59.0782 78.3839 59.0782 78.3839 58.7899 79.2627C58.7338 79.1256 58.6377 78.9886 58.6297 78.8515C58.5977 78.5129 58.4615 78.3032 58.1012 78.2065C57.8129 78.1178 57.7168 78.15 57.7088 78.4645C57.7007 78.8354 57.6607 79.2143 57.5966 79.5852C57.5726 79.7545 57.4685 79.9158 57.4044 80.0851C57.3644 80.0851 57.3244 80.0851 57.2923 80.0851C57.2443 79.9319 57.1882 79.7787 57.1402 79.6255C57.004 79.1659 56.8839 78.6983 56.7397 78.2387C56.6837 78.0533 56.5956 77.9485 56.3553 78.0291C56.1952 78.0855 56.003 78.0372 55.7387 78.0372C55.6746 78.2307 55.5785 78.4967 55.4824 78.7628C55.4424 78.7709 55.3943 78.7789 55.3543 78.787C55.2742 78.5532 55.2021 78.3194 55.106 78.0855C55.05 77.9485 54.9699 77.8275 54.8978 77.6985C54.8097 77.8275 54.7296 77.9646 54.6415 78.0936C54.6095 78.15 54.5775 78.2065 54.4974 78.3597C54.3372 78.0452 54.2171 77.7953 54.081 77.5292C52.9918 77.4889 53.3522 78.4645 53.1039 79.0128C53.0639 79.0208 53.0239 79.0289 52.9758 79.0369C52.8877 78.787 52.7596 78.5532 52.7275 78.2952C52.6875 77.9888 52.7516 77.6824 52.7436 77.368C52.7436 77.2631 52.6715 77.1664 52.6314 77.0616C52.5193 77.118 52.3511 77.1422 52.3111 77.2228C52.215 77.4647 52.167 77.7308 52.0148 78.013C51.9587 77.7872 51.8787 77.5615 51.8626 77.3357C51.8146 76.6423 51.7745 75.957 51.7505 75.2636C51.7185 74.5218 51.9748 74.1671 52.6795 73.901C52.9438 73.7962 53.184 73.6107 53.4563 73.5059C53.6805 73.4172 53.9608 73.3044 54.1771 73.3608C54.7537 73.4979 55.3223 73.6833 55.8668 73.9171C56.3153 74.1106 56.7478 74.2235 57.2443 74.2316C57.7088 74.2396 58.1732 74.409 58.6217 74.5702C58.9501 74.6911 59.2223 74.7798 59.5667 74.5944C59.7429 74.5057 60.0472 74.538 60.2474 74.6266C60.7279 74.8282 61.2004 74.7879 61.6969 74.7153C62.4737 74.6105 63.2506 74.5702 64.0354 74.4815C64.2676 74.4573 64.5079 74.4009 64.7161 74.3041C65.0604 74.1429 65.3968 73.9494 65.7171 73.7397C65.9173 73.6027 66.0775 73.3931 66.2697 73.2399C66.7182 72.869 67.2227 72.8287 67.7753 72.9819C67.9675 73.0383 68.1997 72.9496 68.416 72.9335C68.5441 72.9254 68.6802 72.9093 68.8084 72.9012C69.2088 72.869 69.6092 72.8367 70.0176 72.8125C70.362 72.7884 70.7144 72.6997 71.0347 72.7722C71.7314 72.9335 72.2119 72.5384 72.7004 72.1917C72.7965 72.1272 72.8206 71.7402 72.7245 71.6434C72.244 71.1516 72.284 70.6195 72.4682 70.039C72.6764 69.3778 73.0368 68.8538 73.7015 68.6038C74.2701 68.3861 74.4463 68.0556 74.3101 67.467C74.2941 67.4105 74.2541 67.3541 74.206 67.3138C73.9578 67.088 73.7175 66.8461 73.4452 66.6526C73.3491 66.5881 73.1649 66.6043 73.0368 66.6526C72.9567 66.6768 72.8526 66.83 72.8686 66.9106C72.9647 67.4992 72.5002 67.8701 72.324 68.3619C72.1479 67.983 71.8836 67.6282 71.9797 67.1928C72.0438 66.8945 71.9076 66.7333 71.6674 66.7091C71.5152 66.693 71.331 66.83 71.1869 66.9268C71.0347 67.0316 70.8825 67.1525 70.7624 67.2977C70.6423 67.4428 70.5542 67.6202 70.4181 67.8379C70.2339 67.475 70.37 67.1283 70.402 66.8058C70.4261 66.5881 70.5702 66.3785 70.6103 66.1608C70.6343 66.0238 70.6022 65.8464 70.5222 65.7335C70.4821 65.6771 70.2819 65.7174 70.1618 65.7496C69.9055 65.8222 69.6573 65.9109 69.377 66.0076C69.2248 65.5319 69.5612 65.2417 69.8334 64.9595C70.1137 64.6692 70.4581 64.4354 70.8585 64.1129C70.7064 64.0323 70.5862 63.9758 70.386 63.871C70.7944 63.7581 71.0587 63.6453 71.339 63.6211C71.7154 63.5969 71.8035 63.3469 71.8516 63.0728C72.0438 61.8876 72.5403 60.8475 73.237 59.8961C73.4853 59.5575 73.8376 59.2995 74.1259 58.9931C74.2621 58.856 74.4222 58.6948 74.4703 58.5254C74.8227 57.1951 75.7436 56.3969 76.9048 55.8003C76.9369 55.7841 76.9769 55.768 76.9929 55.7599C76.8808 54.7198 76.7767 53.6878 76.6646 52.6397C75.9999 52.2849 75.6876 51.5593 75.2391 50.9465C75.1991 50.8901 75.159 50.8175 75.103 50.7853C74.5424 50.4305 73.8937 50.1564 73.4292 49.7049C72.9807 49.2695 72.4442 49.1324 71.9236 48.9066C71.4832 48.7131 71.0427 48.5196 70.6183 48.2939C70.4341 48.1971 70.2899 48.0197 70.0897 47.8424C69.8174 47.7617 69.4651 47.6811 69.1367 47.5521C68.5201 47.3102 67.9355 47.0038 67.3108 46.8023C66.8383 46.6491 66.3178 46.633 65.8293 46.5201C65.629 46.4717 65.4449 46.3508 65.2607 46.254C65.1966 46.2218 65.1325 46.1653 65.0685 46.1653C64.3958 46.1411 63.667 46.2701 63.0503 46.0686C62.2495 45.8025 61.4006 46.0525 60.6558 45.6977C59.7509 45.2623 58.8139 45.5042 57.8929 45.4397C57.7888 45.4316 57.6687 45.4719 57.5726 45.4397C56.4835 45.0607 55.4584 45.5364 54.4013 45.6413C54.129 45.6654 53.8487 45.6493 53.5684 45.6574C53.4643 45.6574 53.3602 45.6735 53.2561 45.6896C52.3832 45.8428 51.5023 45.996 50.6374 46.1653C50.3571 46.2218 50.0768 46.3266 49.8045 46.4233C49.1478 46.6491 48.4591 46.7781 47.8184 47.0925C46.7293 47.6327 45.544 47.9794 44.4869 48.6003C43.7982 49.0034 43.0614 49.3178 42.3247 49.6323C42.1244 49.721 41.8602 49.6565 41.6279 49.6565C41.716 49.4468 41.7641 49.1888 41.9162 49.0437C42.1004 48.8583 42.3807 48.7615 42.605 48.6083C42.7091 48.5358 42.8292 48.4309 42.8692 48.3181C42.9813 48.0117 43.1575 47.8182 43.5019 47.7859C43.614 47.7779 43.7421 47.665 43.8062 47.5682C44.0144 47.2215 44.2547 46.9635 44.607 47.02C44.8313 46.8184 45.0155 46.6652 45.1917 46.504C45.2798 46.4233 45.3518 46.3346 45.4319 46.246C45.48 46.1895 45.512 46.0847 45.5761 46.0605C46.1046 45.8186 46.6332 45.5929 47.1617 45.351C47.2738 45.2946 47.394 45.2301 47.4901 45.1575C47.9305 44.8269 48.4751 44.6576 48.8355 44.1738C48.9316 44.0368 49.308 44.0852 49.5562 44.0932C49.8045 44.0932 49.9486 44.0126 50.1168 43.811C50.285 43.6095 50.5733 43.4482 50.8296 43.3918C51.1899 43.3192 51.5583 43.4563 51.8466 43.0209C51.9667 42.8354 52.4072 42.8757 52.7035 42.7871C52.8557 42.7467 53.0879 42.6984 53.136 42.5855C53.3522 42.1179 53.7366 42.1824 54.121 42.1662C54.3532 42.1582 54.5935 42.0775 54.8257 42.0292C55.106 41.9727 55.3943 41.8437 55.6666 41.8598C55.9389 41.884 56.1311 41.8598 56.2993 41.6422C56.3393 41.5938 56.4034 41.5293 56.4594 41.5293C57.1322 41.5051 57.6927 40.9004 58.4295 41.1423C58.5096 41.1665 58.6217 41.0939 58.7098 41.0616C59.3264 40.8359 59.9351 40.594 60.5517 40.3924C60.7199 40.336 60.9361 40.3521 61.1043 40.4086C61.5288 40.5456 61.8731 40.4086 62.2575 40.2392C62.4737 40.1425 62.754 40.1828 63.0023 40.1667C63.2425 40.1506 63.4828 40.1506 63.723 40.1344C63.7711 40.1344 63.8272 40.078 63.8752 40.0861C64.7321 40.3199 65.6611 39.6507 66.4939 40.3118C66.59 40.3924 66.8303 40.3521 66.9745 40.2876C67.3108 40.1425 67.5991 40.0296 67.9355 40.3199C68.0316 40.4005 68.2558 40.3279 68.424 40.336C68.6722 40.3521 68.9125 40.3682 69.1607 40.4005C69.4811 40.4408 69.8014 40.5456 70.1217 40.5376C70.4821 40.5295 70.7864 40.5618 71.0747 40.8198C71.2429 40.9649 71.5312 41.0213 71.7715 41.0294C72.1799 41.0375 72.5643 41.0133 72.8606 41.3761C72.8926 41.4164 72.9807 41.4245 73.0448 41.4164C73.1089 41.4164 73.205 41.3519 73.237 41.3761C73.6294 41.7067 74.1419 41.626 74.5824 41.7953C74.8707 41.9082 75.119 42.1098 75.3913 42.2549C75.4633 42.2952 75.5755 42.2872 75.6555 42.2549C76.0079 42.134 76.2241 42.2952 76.3603 42.6016C76.4884 42.8919 76.6726 43.0289 77.0009 43.037C77.1611 43.0451 77.4174 43.1499 77.4654 43.2789C77.6016 43.6256 77.8338 43.6901 78.1541 43.6901C78.2502 43.6901 78.3544 43.7546 78.4505 43.803C79.7959 44.5367 81.1413 45.2784 82.4947 45.996C83.9682 46.7781 85.0894 47.9552 86.1785 49.1808C86.7952 49.8822 87.3878 50.5998 88.0685 51.269C87.9324 51.0271 87.7642 50.8014 87.6601 50.5434C87.58 50.3579 87.4919 50.0838 87.572 49.9467C87.8763 49.4227 88.2127 48.9066 88.5971 48.439C88.8133 48.181 89.1416 48.1326 89.47 48.3664C89.5901 48.4551 89.7663 48.4793 89.9265 48.5035C90.2628 48.5599 90.5751 48.5922 90.7113 49.0034C90.7513 49.1243 91.0476 49.1808 91.2318 49.2211C91.7684 49.3259 91.9366 49.4146 92.0967 49.7452C91.4641 50.0274 91.4961 50.0354 91.9686 50.6159C92.8575 51.7044 93.4341 52.9219 93.1939 54.3893C93.1779 54.5022 93.2419 54.6473 93.298 54.7602C93.6904 55.4939 93.6824 56.2276 93.266 56.9452C92.9376 57.5095 92.6653 58.1304 91.9366 58.3319C93.2419 61.9198 93.2339 65.4836 91.9686 69.0795C92.9056 69.2408 93.6183 69.7326 94.227 70.4018C94.243 70.4179 94.267 70.4421 94.283 70.4582C94.7715 71.1919 95.2921 71.8853 95.8927 72.5384C96.189 72.8609 96.2851 73.4414 96.3412 73.9171C96.4133 74.5783 96.3652 75.2555 96.3572 75.9328C96.3492 76.5214 96.5654 76.8439 97.094 77.0535C97.3983 77.1745 97.6946 77.3276 97.9749 77.497C98.127 77.5937 98.2392 77.7711 98.3673 77.9082C98.3433 77.9324 98.3273 77.9646 98.3032 77.9888C98.1431 77.9565 97.9909 77.9324 97.7827 77.892C97.8147 77.9807 97.8147 78.0452 97.8468 78.0614C98.1911 78.3194 98.5355 78.5774 98.8959 78.8193C99.3844 79.1579 99.2642 79.7061 99.3924 80.198C98.9759 79.8271 98.3032 80.1657 97.9829 79.6013C97.9429 79.5288 97.6786 79.5933 97.6145 79.5933C97.5665 80.3108 97.5264 80.9801 97.4864 81.6412C97.4543 81.6573 97.4143 81.6654 97.3823 81.6815C97.126 81.3751 96.8697 81.0687 96.6055 80.7704C96.5254 80.6817 96.3492 80.5608 96.3252 80.585C96.213 80.6737 96.0689 80.8269 96.0849 80.9317C96.125 81.2058 96.0048 81.3106 95.7886 81.4235C95.6605 81.488 95.5724 81.6412 95.4683 81.7621C95.3722 81.875 95.2841 82.004 95.196 82.125C95.1559 82.1169 95.1159 82.1088 95.0759 82.1008C95.0598 81.8992 95.0278 81.6976 95.0198 81.4961C95.0038 81.2058 95.0198 80.9156 95.0038 80.6253C94.9798 80.3028 94.7876 80.2222 94.5233 80.4076C94.4592 80.456 94.3951 80.5205 94.3231 80.5285C93.8746 80.6092 93.8666 80.6092 93.7144 81.0687C93.6343 80.9236 93.5703 80.843 93.5382 80.7382C93.4101 80.2625 93.6504 79.6013 94.0668 79.3433C94.5073 79.0773 94.5713 78.3032 94.3471 77.9404C94.0908 77.5292 93.8185 77.1341 93.5703 76.7229C93.3621 76.3763 93.266 76.0296 93.4021 75.6103C93.5463 75.1588 93.298 74.8121 92.8415 74.6911C92.1208 74.5057 91.408 74.3122 90.6552 74.1026C90.3589 74.5299 90.0386 75.0056 89.7022 75.4732C88.8453 76.6584 87.7802 77.5534 86.3227 77.9001C86.1385 77.9404 85.9703 78.0855 85.8102 78.1904C85.5539 78.3597 85.3136 78.5693 84.9693 78.4322C84.9132 78.4081 84.7931 78.4726 84.745 78.5371C82.7349 81.23 80.2043 83.2618 77.041 84.3986C75.7116 84.8743 74.3422 85.221 72.9647 85.5355C72.4842 85.6403 71.9396 85.4952 71.4351 85.4065C71.2269 85.3662 71.0747 85.3258 70.8905 85.471C69.2809 86.7046 67.511 86.9464 65.589 86.3982C64.3877 86.0596 63.1865 85.9951 61.9612 86.3498C61.5928 86.4546 61.1684 86.3579 60.776 86.3579C60.0152 86.3498 59.2624 86.3417 58.5016 86.3417C58.4375 86.3417 58.3654 86.3579 58.3094 86.3901C57.3724 86.9545 56.3553 86.5998 55.3703 86.6401C54.2652 86.6884 53.4002 86.0837 52.6154 85.3662C52.3191 85.092 52.3592 84.705 52.7035 84.3422C52.7836 84.2535 52.8397 84.1164 52.8557 83.9955C52.9117 83.6085 52.9438 83.2134 52.9838 82.8183C53.0399 82.8103 53.0959 82.8022 53.144 82.7942C53.2 82.9635 53.2401 83.1489 53.3202 83.3102C53.4083 83.4795 53.5364 83.7617 53.6565 83.7697C53.8888 83.7778 54.1931 83.7052 54.1931 83.3263C54.1931 83.1812 54.2892 83.036 54.4413 82.8667C54.5214 83.0441 54.5935 83.2215 54.6736 83.415C55.0099 83.157 55.3703 82.9312 55.6586 82.6329C55.7948 82.4878 55.7867 82.2056 55.8428 81.9879C55.9309 81.6654 55.9389 81.3026 56.3393 81.0284C56.3794 81.6009 56.4114 82.1088 56.4514 82.6087C56.5075 82.6248 56.5555 82.641 56.6116 82.649C56.7317 82.4233 56.8439 82.1895 57.004 81.8831C57.1081 82.133 57.1802 82.3104 57.2603 82.4958C57.4044 82.4958 57.5406 82.4958 57.6767 82.4958C57.7648 82.2378 57.8449 81.996 57.965 81.6251C58.0771 81.8508 58.1092 81.9879 58.1893 82.0766C58.2773 82.1733 58.4135 82.2862 58.5336 82.2862C58.7338 82.2943 58.886 82.1895 58.878 81.9395C58.87 81.7783 58.91 81.6089 58.926 81.3832C59.1503 81.5203 59.3024 81.617 59.4626 81.7218C59.5507 81.5606 59.6388 81.4074 59.7429 81.2219C60.4636 81.6009 60.0312 80.843 60.1593 80.6898C60.4156 80.7059 60.6158 80.722 60.808 80.7301C60.7279 80.5608 60.7439 80.3431 60.7599 80.1254ZM75.0549 63.6614C75.0229 63.6533 74.9908 63.6453 74.9668 63.6291C74.5023 63.9597 74.0378 64.2983 73.5253 64.6612C73.6374 64.9837 73.7255 65.3384 73.8937 65.6529C74.0779 66.0076 74.3342 66.3221 74.198 66.7655C74.174 66.8542 74.23 66.9752 74.2541 67.08C74.5183 65.927 74.7826 64.7982 75.0549 63.6614Z" fill="#20113D"/>
</g>
<defs>
<filter id="filter0_d_1_521" x="-9.30225" y="-8.56201" width="160" height="204" filterUnits="userSpaceOnUse" color-interpolation-filters="sRGB">
<feFlood flood-opacity="0" result="BackgroundImageFix"/>
<feColorMatrix in="SourceAlpha" type="matrix" values="0 0 0 0 0 0 0 0 0 0 0 0 0 0 0 0 0 0 127 0" result="hardAlpha"/>
<feOffset dy="4"/>
<feGaussianBlur stdDeviation="15"/>
<feColorMatrix type="matrix" values="0 0 0 0 0.960784 0 0 0 0 0.501961 0 0 0 0 0.129412 0 0 0 0.7 0"/>
<feBlend mode="normal" in2="BackgroundImageFix" result="effect1_dropShadow_1_521"/>
<feBlend mode="normal" in="SourceGraphic" in2="effect1_dropShadow_1_521" result="shape"/>
</filter>
</defs>
</svg>
