<svg width="141" height="181" viewBox="0 0 141 181" fill="none" xmlns="http://www.w3.org/2000/svg">
<g filter="url(#filter0_d_1_522)">
<path d="M70.3101 26C48.0281 26 30 43.2452 30 64.4962C30 85.7472 70.3101 146.649 70.3101 146.649C70.3101 146.649 110.62 85.7472 110.62 64.4962C110.62 43.2452 92.592 26 70.3101 26Z" fill="#F58021"/>
<path fill-rule="evenodd" clip-rule="evenodd" d="M61.9505 68.2718C59.5319 68.9936 57.0946 68.8826 54.6385 67.2724C54.4501 67.5063 54.257 67.7417 54.0619 67.9795L54.0614 67.9801L54.0614 67.9801L54.0614 67.9801L54.0613 67.9802L54.0613 67.9802C53.5773 68.5702 53.0812 69.175 52.6137 69.8079C52.2668 70.2984 51.9434 70.8073 51.62 71.3163L51.62 71.3163L51.62 71.3164C51.2966 71.8253 50.9732 72.3342 50.6263 72.8247C49.8576 73.9166 49.5764 75.1011 49.6514 76.4152C49.7451 78.0994 49.0702 78.9507 47.4016 79.2468C43.9706 79.8576 40.8958 77.3405 40.877 73.9166C40.877 73.5823 40.871 73.2479 40.865 72.9148C40.856 72.4181 40.8471 71.924 40.8583 71.4366C40.8898 70.1296 41.4646 68.9927 42.0369 67.8608C42.1453 67.6464 42.2536 67.4321 42.3582 67.2169C42.6286 66.6633 42.9016 66.1105 43.1746 65.5577L43.1747 65.5576L43.1748 65.5574C44.1887 63.5044 45.2029 61.4507 46.0891 59.3511C47.3919 56.274 49.3488 53.6274 51.3128 50.9714L51.3128 50.9714L51.3128 50.9714L51.3128 50.9714C51.7231 50.4165 52.1337 49.8612 52.5387 49.3015C52.5581 49.2775 52.5788 49.2535 52.5998 49.2292L52.5998 49.2292L52.5999 49.2291C52.6598 49.1597 52.722 49.0876 52.7637 49.0054C54.9572 45.0632 58.857 44.1379 62.8692 43.3605C63.8586 43.172 64.84 42.936 65.8208 42.7C66.9587 42.4263 68.0958 42.1527 69.2437 41.9539C71.3436 41.5838 73.4996 41.2877 75.637 41.2136C78.168 41.1211 80.3054 42.2871 82.199 43.8972C79.3305 42.4537 76.2557 41.954 73.0684 42.028C72.2622 42.0465 71.456 42.1205 70.6499 42.2131C69.4874 42.3426 69 43.194 68.6812 44.1749C67.8563 46.6734 68.025 49.1349 68.9062 51.6149C69.1186 52.2108 69.251 52.8395 69.3829 53.4658L69.3829 53.4658C69.4723 53.8901 69.5614 54.3132 69.6749 54.7242C69.8197 55.2365 69.9611 55.7505 70.1026 56.2647L70.1026 56.2647L70.1026 56.2648L70.1026 56.2648L70.1026 56.2648C70.6203 58.1471 71.1389 60.0326 71.831 61.8497C72.1122 62.6085 73.0497 63.3488 73.8559 63.6449C77.0244 64.7739 80.2679 65.3846 83.6239 64.2556C87.8424 62.8306 90.0172 58.3887 88.4235 54.2615C87.9129 52.954 87.3072 51.6868 86.6988 50.4141C86.5925 50.1915 86.486 49.9688 86.38 49.7457C86.2828 49.5403 86.0831 49.3754 85.887 49.2135C85.8181 49.1566 85.7496 49.1001 85.6863 49.0424C85.4438 48.8153 85.191 48.5943 84.9375 48.3727C84.4265 47.926 83.9125 47.4767 83.4739 46.9695C82.8552 46.2477 82.874 45.3408 83.4177 44.5635C83.9426 43.8047 84.7863 43.6196 85.6675 43.7677C87.0362 43.9898 87.9173 44.8226 88.3673 46.0626C88.7985 47.2656 88.3861 48.3021 87.3174 49.2089C88.7235 50.3564 89.1922 52.0036 89.6047 53.6323C89.7609 54.2489 89.8448 54.8854 89.9289 55.5234L89.9289 55.5235L89.9289 55.5235L89.9289 55.5236C90.0265 56.2641 90.1244 57.0066 90.3359 57.7225C90.6891 58.9079 91.1129 60.0772 91.5372 61.2478C91.9011 62.2521 92.2654 63.2572 92.5857 64.2742C93.0017 65.576 93.3847 66.8888 93.7674 68.2006L93.7675 68.2007L93.7675 68.2008L93.7675 68.2009C94.0921 69.3134 94.4165 70.4252 94.7606 71.5292C94.9524 72.1444 95.1978 72.7446 95.443 73.3441L95.443 73.3442L95.4432 73.3447L95.4432 73.3448L95.4433 73.3449C95.5815 73.6828 95.7196 74.0206 95.848 74.3608C96.2589 75.4372 97.1893 75.9219 98.1115 76.4023C98.2834 76.4919 98.4549 76.5812 98.6228 76.6743C99.4852 77.1555 99.9352 77.7847 99.7102 78.7841C99.504 79.728 98.8853 80.3203 97.7416 80.2833C95.398 80.1907 93.0732 79.9686 90.7484 79.728C90.3547 79.691 89.9422 79.2838 89.661 78.9507C88.0861 77.0814 86.5299 75.1937 84.9926 73.3059C83.9239 71.9918 83.1364 70.5482 82.724 68.9011C82.5487 68.2233 82.1912 67.5792 81.8379 66.9426C81.7378 66.7622 81.638 66.5824 81.5428 66.4025C81.4491 66.2175 81.1866 66.0509 80.9803 66.0139L80.8323 65.9849C79.6445 65.7518 78.4629 65.52 77.4369 66.5506C77.1757 66.8269 76.7474 66.9748 76.3737 67.1039L76.3682 67.1058C75.712 67.3279 75.412 67.7351 75.6557 68.3643C76.5206 70.6534 76.4553 72.9922 76.3899 75.3363V75.3363C76.3574 76.4984 76.3249 77.6618 76.4057 78.8212C76.439 79.2653 76.502 79.7095 76.5649 80.1537C76.6436 80.7089 76.7223 81.2642 76.7432 81.8194C76.7619 82.2451 76.5744 82.8558 76.2744 83.0779C73.7809 84.9287 70.9873 85.2433 68.1188 84.2254C66.6939 83.7072 65.7377 82.6892 65.5127 80.9495C65.0815 77.3405 64.5003 73.7501 63.7504 70.1966C63.4803 68.8636 62.8303 67.5907 62.1972 66.3507C62.1271 66.2133 62.0572 66.0764 61.988 65.9398C60.1881 62.4049 59.6819 58.7404 60.3194 54.8168C60.8443 51.5594 61.5568 48.4501 63.7504 45.8776C64.2028 45.3521 64.7402 44.9013 65.2755 44.4522L65.2756 44.4522C65.4945 44.2685 65.713 44.0852 65.9252 43.8972C65.9572 43.8702 65.9914 43.8443 66.0259 43.8181L66.026 43.8179L66.0262 43.8178L66.0262 43.8178C66.1333 43.7365 66.2435 43.6529 66.3002 43.5271C63.4129 43.5641 60.8068 44.3599 58.2383 45.5444C55.8321 46.6337 54.4532 48.5764 53.057 50.5433C52.7452 50.9826 52.4326 51.4231 52.1075 51.8555C51.9762 52.0406 51.9762 52.3552 51.995 52.6143C52.2703 55.2052 53.2823 57.5655 54.2922 59.921L54.3573 60.0729C54.5582 60.5224 54.6634 61.0191 54.7686 61.5158L54.7686 61.5159L54.7687 61.5159L54.7687 61.516C54.8107 61.7146 54.8528 61.9132 54.901 62.1088C55.0135 62.6085 55.126 63.1267 55.1635 63.6449C55.1711 63.7502 55.1794 63.8563 55.1878 63.9628L55.1878 63.9628C55.241 64.642 55.2957 65.3394 55.1822 65.9954C54.9573 67.1613 55.051 67.513 56.2697 67.6981C56.6627 67.7369 57.0591 67.7757 57.4572 67.8146C58.958 67.9616 60.4835 68.1109 61.9505 68.2718ZM70.9874 50.8935C69.9 50.4493 69.45 49.3944 69.3 48.1544C69.1313 46.8033 70.3687 45.1191 71.8123 44.6194C72.956 44.2308 74.5684 44.86 75.2058 45.9705C75.5808 46.6367 75.7308 47.1735 74.9059 47.7472C73.9725 48.3922 73.1055 49.1214 72.17 49.9082L72.1699 49.9083L72.1699 49.9083C71.79 50.2278 71.3989 50.5568 70.9874 50.8935ZM74.5496 56.5747C74.2121 58.0368 75.1683 59.2028 76.3307 59.1103C76.436 58.7791 76.5366 58.4548 76.6359 58.1348L76.6359 58.1348L76.636 58.1345L76.636 58.1343C76.8196 57.5427 76.9985 56.9662 77.1932 56.3897C77.2447 56.2455 77.316 56.1051 77.3871 55.9651C77.4711 55.7997 77.5548 55.6347 77.6056 55.4643C77.7556 54.9276 77.9243 54.2243 77.2306 54.0577C76.7244 53.9467 75.9183 54.1132 75.5995 54.4649C75.0933 55.0201 74.7183 55.8159 74.5496 56.5747ZM81.2428 54.5019C81.3265 54.3917 81.4036 54.2716 81.4794 54.1535C81.6584 53.8747 81.8307 53.6064 82.0677 53.5024C82.3115 53.3914 82.8364 53.6135 83.0989 53.8356C83.1567 53.8847 83.2149 53.9339 83.2731 53.9832L83.2731 53.9832C83.8943 54.5088 84.5281 55.0449 84.9738 55.7049C85.2175 56.0935 85.1237 56.8153 84.955 57.2965C84.8238 57.6481 84.3363 58.0183 83.9613 58.0923C83.7176 58.1293 83.3239 57.6852 83.0801 57.389C82.6677 56.8893 82.3115 56.3711 81.9552 55.8159C81.7737 55.5727 81.637 55.2941 81.477 54.9679L81.4769 54.9678C81.4055 54.8224 81.3295 54.6674 81.2428 54.5019ZM82.2246 61.1534L82.2365 61.1462C82.2312 61.1146 82.2243 61.0815 82.2172 61.0473C82.1994 60.9614 82.1803 60.8687 82.1803 60.776C82.0803 60.7514 81.9803 60.7185 81.8803 60.6855C81.6803 60.6197 81.4803 60.5539 81.2803 60.5539C80.5116 60.5539 79.7429 60.5725 78.993 60.665C78.693 60.702 78.3368 60.9056 78.2056 61.1277C78.1306 61.2572 78.3743 61.6644 78.5805 61.8495C78.69 61.9576 78.8507 61.9962 79.0141 62.0355C79.1303 62.0635 79.2479 62.0917 79.3492 62.1456C79.5555 62.2566 79.9304 62.4787 79.9117 62.5713C79.8367 62.8304 79.6492 63.0895 79.4242 63.2746C79.3153 63.3701 79.1595 63.404 78.9669 63.4459C78.8611 63.4689 78.7443 63.4943 78.618 63.5337C79.3457 63.4866 80.0203 63.4395 80.6949 63.3924C81.0804 63.3654 81.466 63.3385 81.8615 63.3116C81.6402 63.2145 81.3865 63.185 81.1423 63.1567C80.6419 63.0986 80.1809 63.0451 80.1179 62.4232C80.8821 61.9632 81.5536 61.5581 82.2246 61.1534Z" fill="#20113D"/>
</g>
<defs>
<filter id="filter0_d_1_522" x="-9.30225" y="-8.56201" width="160" height="204" filterUnits="userSpaceOnUse" color-interpolation-filters="sRGB">
<feFlood flood-opacity="0" result="BackgroundImageFix"/>
<feColorMatrix in="SourceAlpha" type="matrix" values="0 0 0 0 0 0 0 0 0 0 0 0 0 0 0 0 0 0 127 0" result="hardAlpha"/>
<feOffset dy="4"/>
<feGaussianBlur stdDeviation="15"/>
<feColorMatrix type="matrix" values="0 0 0 0 0.960784 0 0 0 0 0.501961 0 0 0 0 0.129412 0 0 0 0.7 0"/>
<feBlend mode="normal" in2="BackgroundImageFix" result="effect1_dropShadow_1_522"/>
<feBlend mode="normal" in="SourceGraphic" in2="effect1_dropShadow_1_522" result="shape"/>
</filter>
</defs>
</svg>
