<svg width="141" height="181" viewBox="0 0 141 181" fill="none" xmlns="http://www.w3.org/2000/svg">
<g filter="url(#filter0_d_1_526)">
<path d="M70.3101 26C48.0281 26 30 43.2452 30 64.4962C30 85.7472 70.3101 146.649 70.3101 146.649C70.3101 146.649 110.62 85.7472 110.62 64.4962C110.62 43.2452 92.592 26 70.3101 26Z" fill="#F58021"/>
<path d="M55.8207 74.8593C55.7859 74.9207 55.757 74.9909 55.6874 75.1136C54.9131 73.8117 54.6883 72.3717 54.4142 70.9521C54.3647 70.9343 54.3065 70.9223 54.2628 70.9133C54.0951 71.3432 53.872 71.7465 53.7712 72.1827C53.4226 73.611 53.528 75.0415 53.8691 76.4674C54.2865 78.1603 54.7039 79.8531 55.0602 81.5486C55.3253 82.8217 55.4798 84.1177 55.2008 85.4233C54.8959 86.8606 54.2585 88.0238 52.8107 88.5706C52.1653 88.8107 51.5307 88.7256 50.9449 88.3916C50.3737 88.0606 50.2995 87.4742 50.7932 87.0429C51.0865 86.7835 51.4204 86.5097 51.7809 86.3708C52.4932 86.0988 52.8586 85.5877 52.9151 84.8759C52.9687 84.2168 52.9903 83.5283 52.8752 82.8801C52.5566 81.1467 52.1741 79.4306 51.7683 77.7172C51.3125 75.7956 51.0458 73.8749 51.3785 71.9102C51.6682 70.2032 52.4067 68.7562 53.76 67.6493C53.8588 67.5706 53.9488 67.4978 54.0475 67.4192C54.1085 67.3785 54.1667 67.3524 54.2771 67.2914C54.3623 67.6288 54.43 67.9397 54.5065 68.2449C54.9609 66.0844 55.095 63.8199 56.8951 62.173C59.5353 63.654 60.9989 65.9585 61.5882 68.8977C62.1182 65.542 60.1191 63.226 58.1664 60.8283C58.6546 60.5405 59.1166 60.2703 59.5786 60C59.9709 59.7762 60.3632 59.5525 60.7584 59.3142C61.6476 58.7969 61.6737 58.7794 62.2753 59.6497C62.839 60.4818 63.333 61.3604 63.8473 62.2127C63.9437 62.3773 64.0314 62.5477 64.1773 62.692C64.0803 61.1413 63.4484 59.7697 62.6767 58.377C63.5601 57.889 64.4203 57.4038 65.3038 56.9539C65.423 56.8871 65.6648 57.0054 65.8134 57.097C67.4951 58.1367 68.4797 59.7181 69.1622 61.5265C69.3672 62.0638 69.5461 62.6185 69.7831 63.1471C69.7793 60.4277 68.4119 58.2115 67.0124 55.9278C68.0147 55.2587 68.9909 54.607 70.028 53.9146C71.0113 54.9626 71.5937 56.3164 72.2314 57.6587C72.2929 56.6128 72.0111 55.6561 71.5055 54.7599C71.3272 54.4338 71.1401 54.1134 70.927 53.8106C70.667 53.4371 70.672 53.1031 70.9942 52.7735C71.6445 52.1232 72.283 51.4553 72.9333 50.805C75.5186 52.4879 77.0666 54.787 77.6473 57.77C77.7889 56.2 77.3749 54.7211 76.8069 53.2941C76.2417 51.8526 75.322 50.6349 74.1668 49.4981C75.485 48.3002 76.7567 47.1459 78.0633 45.9684C79.2686 47.3516 80.2613 48.6985 80.7369 50.3653C80.6101 48.542 80.0182 46.8893 78.8591 45.3481C79.4782 45.0493 80.0217 44.7501 80.5886 44.5243C80.7107 44.4809 80.9351 44.611 81.0896 44.7114C81.7687 45.1484 82.4939 45.3893 83.3202 45.3464C82.3681 45.1425 81.8339 44.4688 81.4129 43.6814C81.1118 43.132 81.3118 42.8077 81.9053 42.7549C82.8945 42.6542 83.8749 42.5213 84.8522 42.3649C85.5242 42.2597 86.1726 42.0431 86.8446 41.9379C87.8598 41.7817 88.7915 42.0119 89.7326 42.4648C90.4377 42.8082 91.2644 42.9177 92.0534 43.0651C92.5338 43.1642 92.9771 43.5678 92.9958 44.0514C93.0053 44.3884 93.0236 44.7197 93.0652 45.0481C93.1868 45.9717 92.9064 46.744 92.2766 47.4442C92.2182 47.356 92.1686 47.3001 92.1364 47.2326C91.8495 46.5337 91.8554 46.5425 91.1341 46.7061C90.4506 46.8698 89.7935 47.0922 89.3235 47.6731C88.781 48.3532 88.7219 49.1559 89.2035 49.7501C89.5918 50.2414 90.663 50.3785 91.2995 50.0299C91.4186 49.9631 91.5377 49.8963 91.6569 49.8295C91.9759 50.5578 91.8667 51.114 91.2946 51.5977C90.8416 51.9764 90.3448 52.3081 89.8278 52.7041C89.2332 52.3378 88.6007 51.9333 87.9509 51.5785C87.2866 51.2207 86.5962 50.9565 85.7209 51.2101C86.0589 51.3788 86.3124 51.5148 86.6621 51.7011C85.2202 52.2948 84.2505 53.222 83.7128 54.6494C83.5282 54.124 83.3494 53.6073 83.1296 52.9909C82.8902 56.2161 85.3774 60.5593 90.267 62.0395C90.0402 62.1146 89.8628 62.1694 89.6826 62.2389C89.6885 62.2858 89.6857 62.3385 89.6917 62.3855C89.8982 62.3747 90.0991 62.3933 90.2969 62.3503C90.9774 62.2012 91.6492 62.0199 92.3356 61.8797C92.9988 61.7422 93.5987 61.9268 94.2225 62.3753C93.3423 62.9629 92.5317 63.5041 91.7299 64.0393C91.0442 64.4843 90.3644 64.9382 89.667 65.3656C89.5304 65.444 89.2977 65.4722 89.1666 65.4071C86.4162 64.0633 83.4989 63.4923 80.4754 63.4629C79.4918 63.4581 78.6152 63.2165 77.8135 62.6324C77.6007 62.4819 77.3532 62.3928 77.0563 62.362C77.386 62.727 77.707 63.0978 78.098 63.5363C74.4356 64.0606 71.1096 65.3016 68.0533 67.3292C67.6646 66.6474 67.2992 66.0009 66.9397 65.3633C66.9077 65.3719 66.8844 65.3747 66.8524 65.3834C66.9053 65.577 66.9407 65.7823 67.0169 65.9732C67.3918 66.9567 67.3156 67.9234 67.0067 68.9182C66.2993 71.1712 64.8223 72.8695 63.2404 74.5233C62.3639 75.4392 61.5807 76.4581 60.8091 77.4565C60.2202 78.2185 59.914 79.1225 59.896 80.1011C59.8964 80.2535 59.8502 80.4115 59.8187 80.6106C59.6614 80.5249 59.5303 80.4598 59.3671 80.3652C59.3818 80.4444 59.379 80.4971 59.3966 80.5236C60.1558 81.594 61.0917 82.3047 62.4966 82.0537C63.0144 81.9625 63.5064 82.041 63.9238 82.5764C63.7321 82.7044 63.549 82.8266 63.3747 82.943C62.0238 83.8448 60.667 84.7378 59.3365 85.6515C59.0314 85.8551 58.848 85.825 58.5624 85.6214C57.5537 84.8956 56.9284 83.8757 56.3554 82.8209C56.1449 82.4272 56.0884 81.9053 56.096 81.4423C56.1039 79.9361 56.1962 78.4245 56.1982 76.9095C56.2053 76.218 56.0609 75.5257 55.9923 74.8338C55.9342 74.8599 55.8818 74.8567 55.8207 74.8593ZM87.081 43.3955C87.0724 43.4775 87.0726 43.5537 87.0641 43.6357C87.5155 43.7668 87.9641 43.9507 88.4269 44.0233C88.5958 44.0505 88.8047 43.7966 88.9964 43.6686C88.8273 43.5271 88.6608 43.2567 88.4949 43.2529C88.0205 43.2389 87.5464 43.3391 87.081 43.3955Z" fill="#20113D"/>
<path d="M69.2723 73.9343C69.1966 73.934 69.0249 73.9214 68.76 73.9201C69.5242 74.5806 70.3363 74.6109 71.1481 74.5268C72.1142 74.4288 73.0742 74.2458 74.0403 74.1478C74.6106 74.0977 75.161 74.2264 75.5204 74.8263C75.3955 74.9225 75.2852 75.0217 75.1631 75.1032C73.716 76.0697 72.2747 77.0451 70.8072 77.9998C70.6066 78.1337 70.2895 78.1674 70.0478 78.1252C69.3228 77.9986 68.6151 77.8222 67.8987 77.6516C67.06 77.4482 66.5466 76.9766 66.4775 76.0556C66.4563 75.7388 66.2838 75.4213 66.1202 75.1361C65.7958 74.5891 65.4278 74.0713 65.0598 73.5153C66.4102 72.2698 66.9796 70.6041 67.6043 68.9651C67.8792 68.2597 68.3204 67.7868 69.024 67.4823C69.599 68.1419 70.078 68.8274 69.8678 69.7823C69.7784 70.1601 69.6833 70.5291 69.6289 70.9217C69.5061 71.8946 69.395 72.8852 69.2723 73.9343Z" fill="#20113D"/>
<path d="M73.7444 65.1326C75.5104 64.7804 77.1338 64.4597 78.8125 64.1276C79.0669 65.8413 78.582 67.5779 79.3485 69.1914C79.0868 69.2899 78.8512 69.3709 78.6127 69.4665C78.6158 69.5281 78.6276 69.5839 78.6306 69.6454C79.0032 69.6384 79.3904 69.6725 79.754 69.5951C80.3475 69.466 80.9087 69.2312 81.4992 69.0786C82.1683 68.9117 82.6871 69.2016 83.1628 69.7493C82.5962 70.1278 82.0469 70.4946 81.5064 70.8556C80.5212 71.5136 79.5478 72.1892 78.5451 72.8208C78.3649 72.9284 78.0506 72.9474 77.8438 72.8819C77.0136 72.6346 76.4533 72.0161 76.14 71.258C75.3115 69.2659 74.5586 67.2361 73.7444 65.1326Z" fill="#20113D"/>
</g>
<defs>
<filter id="filter0_d_1_526" x="-9.30225" y="-8.56201" width="160" height="204" filterUnits="userSpaceOnUse" color-interpolation-filters="sRGB">
<feFlood flood-opacity="0" result="BackgroundImageFix"/>
<feColorMatrix in="SourceAlpha" type="matrix" values="0 0 0 0 0 0 0 0 0 0 0 0 0 0 0 0 0 0 127 0" result="hardAlpha"/>
<feOffset dy="4"/>
<feGaussianBlur stdDeviation="15"/>
<feColorMatrix type="matrix" values="0 0 0 0 0.960784 0 0 0 0 0.501961 0 0 0 0 0.129412 0 0 0 0.7 0"/>
<feBlend mode="normal" in2="BackgroundImageFix" result="effect1_dropShadow_1_526"/>
<feBlend mode="normal" in="SourceGraphic" in2="effect1_dropShadow_1_526" result="shape"/>
</filter>
</defs>
</svg>
