<svg width="141" height="181" viewBox="0 0 141 181" fill="none" xmlns="http://www.w3.org/2000/svg">
<g filter="url(#filter0_d_1_525)">
<g filter="url(#filter1_d_1_525)">
<path d="M70.3101 26C48.0281 26 30 43.2452 30 64.4962C30 85.7472 70.3101 146.649 70.3101 146.649C70.3101 146.649 110.62 85.7472 110.62 64.4962C110.62 43.2452 92.592 26 70.3101 26Z" fill="#F58021"/>
</g>
<path d="M56.3746 84.9232C56.1058 83.5388 56.0191 82.1631 56.2619 80.7874C56.6435 78.602 57.7275 76.817 59.4706 75.4849C60.3378 74.8231 61.3351 74.3355 62.2717 73.7609C62.8874 73.3865 63.5465 73.0556 64.0755 72.5854C65.4717 71.3229 66.8072 69.9995 68.1687 68.7021C68.9752 67.9359 69.773 67.161 70.6316 66.3338C70.0505 66.2903 69.5302 66.2816 69.0185 66.2032C68.5069 66.1249 67.9952 65.9943 67.6223 65.4718C67.8044 65.4631 67.9345 65.4544 68.0646 65.4544C69.4348 65.4109 70.1286 64.7143 70.1546 63.3822C70.1719 62.7378 70.0158 62.0848 69.9291 61.4405C69.5389 58.7152 70.2153 56.2598 71.811 54.0483C71.915 53.9003 72.0278 53.7435 72.1578 53.5607C71.7156 53.5084 71.3166 53.491 70.9351 53.404C70.5622 53.3169 70.2153 53.1602 69.8511 53.0383C69.8597 52.9947 69.8684 52.9512 69.8771 52.9164C70.1633 52.8554 70.4494 52.8032 70.7269 52.7335C72.7736 52.1937 74.2738 51.0008 75.1844 49.0505C75.566 48.2407 75.9996 47.4484 76.4852 46.6996C77.3438 45.3848 78.5665 44.549 80.0841 44.1484C80.2229 44.1136 80.353 44.0701 80.5351 44.0178C80.2576 43.8524 79.9887 43.7392 79.7893 43.5477C79.6158 43.3822 79.5291 43.1297 79.4511 42.8424C80.1709 43.0862 80.6825 42.7466 81.2028 42.4419C82.0874 41.9195 83.0066 41.5276 84.0646 41.5712C85.3654 41.6321 86.3541 42.2851 87.1779 43.2516C87.2906 43.3822 87.3947 43.5215 87.5074 43.6696C88.2099 43.1558 88.9123 43.2952 89.5627 43.7305C89.927 43.9743 90.2131 44.34 90.56 44.6273C91.115 45.0975 91.6527 45.6112 92.2684 46.003C92.5719 46.1946 93.0142 46.1598 93.4652 46.2468C93.76 47.0914 93.3091 47.7009 91.8088 48.2843C92.1817 48.9373 92.5546 49.5903 92.9275 50.2433C93.205 50.7222 93.4218 51.1924 93.257 51.8019C93.1877 52.0805 93.3698 52.4897 93.5519 52.7596C94.0202 53.4388 94.5492 54.0744 95.0522 54.7274C95.3123 55.0757 95.5638 55.4327 95.8153 55.781C96.0581 56.1205 96.0581 56.4514 95.8066 56.7823C95.4858 57.1915 95.2083 57.653 94.818 57.9838C94.237 58.4714 93.76 59.0287 93.2744 59.612C92.598 60.4305 91.6267 60.4653 90.8289 59.7513C90.6294 59.5685 90.4126 59.3682 90.2912 59.1332C90.0137 58.5759 89.5367 58.3669 88.9904 58.2189C88.4701 58.0796 87.9497 57.9577 87.4467 57.7836C87.0305 57.6356 86.6402 57.4353 86.2413 57.2524C86.1719 57.5224 86.198 57.7487 86.5448 57.9838C87.0478 58.3147 87.5855 58.5846 88.1405 58.8371C88.3833 58.9503 88.5221 59.0548 88.6088 59.3247C88.9904 60.5872 89.398 61.841 89.8142 63.0861C90.2218 64.3138 90.2565 65.5763 90.2131 66.8562C90.1611 68.2929 89.927 69.6773 89.4934 71.0356C89.1812 72.0021 88.8343 72.629 88.392 73.0643C88.0971 72.2894 87.811 71.5232 87.5161 70.7657C87.4728 70.7744 87.4294 70.7831 87.386 70.7918C87.4554 71.558 87.4988 72.3242 87.6028 73.0904C88.0798 76.4513 88.8083 79.7687 89.7795 83.0251C89.9096 83.443 90.1438 83.8523 90.3952 84.2093C90.8635 84.871 91.54 85.0974 92.3291 85.0277C93.2397 84.9493 93.7167 85.228 93.9248 86.1161C94.0809 86.7952 94.0896 87.5092 94.1676 88.2406C91.5053 88.2406 88.973 88.2406 86.3454 88.2406C86.2673 87.2306 86.2153 86.2206 86.0939 85.2193C86.0332 84.6794 85.9551 84.1135 85.7123 83.6433C85.1746 82.6159 84.5416 81.6494 83.9259 80.6655C83.05 79.2724 82.1568 77.888 81.2809 76.5123C79.5031 77.2524 77.6559 78.0273 75.7568 78.8109C75.6961 79.3072 75.6267 79.9167 75.5573 80.5175C75.4619 81.3708 75.0456 82.0325 74.3606 82.5027C73.6061 83.0164 72.8082 83.4517 72.0278 83.9219C71.8196 84.0525 71.6115 84.1918 71.4034 84.3224C71.4207 84.3747 71.4294 84.4269 71.4467 84.4792C71.7069 84.514 71.9757 84.5837 72.2272 84.5662C73.2332 84.4966 74.2391 84.4008 75.2538 84.3137C75.4966 84.2963 75.7394 84.2702 75.9909 84.2702C78.2717 84.2615 79.7199 85.9071 79.4511 88.2493C79.3123 88.258 79.1736 88.2667 79.0348 88.2667C71.6809 88.2667 64.3183 88.2754 56.9643 88.2667C56.2185 88.2667 55.4467 88.2319 54.7269 88.049C54.1372 87.901 53.4868 87.6137 53.0619 87.187C51.3708 85.4979 50.4863 83.4779 51.2581 81.066C51.7351 79.5858 52.3941 78.1579 53.0272 76.73C53.4435 75.7896 53.9118 74.8754 54.0765 73.8392C54.3714 72.0195 53.5822 70.3739 52.0386 69.6077C51.0413 69.1114 49.3849 69.8776 49.1595 70.9485C49.1334 71.0791 49.2028 71.3055 49.2982 71.3665C50.0527 71.8453 50.4082 72.5593 50.573 73.4039C50.7985 74.5793 50.573 76.4339 50.096 77.3569C49.8532 76.9825 49.6104 76.6081 49.3676 76.2337C49.4977 77.8009 48.8733 79.0199 47.9193 80.1083C47.8673 80.0909 47.824 80.0909 47.8153 80.0821C47.4511 79.0983 46.7746 78.3669 45.9941 77.6964C45.6126 77.3656 45.3177 76.9389 44.9795 76.5471C44.8754 76.7474 44.728 77.0347 44.5806 77.322C44.1383 76.9389 43.8608 76.1379 43.9822 75.3543C44.1643 74.2049 44.65 73.2298 45.8034 72.7335C45.9161 72.6812 46.0028 72.5071 46.0548 72.3678C46.6099 70.905 47.4424 69.6512 48.8126 68.8414C49.9226 68.1797 51.154 67.9272 52.4375 68.1275C53.6343 68.3103 54.3801 69.0939 54.805 70.1997C55.412 71.7757 55.3773 73.4039 55.0044 74.9973C54.7356 76.164 54.3107 77.2959 53.8597 78.4104C53.4695 79.3943 53.0445 80.3608 52.9231 81.4317C52.715 83.4866 54.2413 85.0799 56.3746 84.9232Z" fill="#20113D"/>
</g>
<defs>
<filter id="filter0_d_1_525" x="-9.30225" y="-8.56201" width="160" height="204" filterUnits="userSpaceOnUse" color-interpolation-filters="sRGB">
<feFlood flood-opacity="0" result="BackgroundImageFix"/>
<feColorMatrix in="SourceAlpha" type="matrix" values="0 0 0 0 0 0 0 0 0 0 0 0 0 0 0 0 0 0 127 0" result="hardAlpha"/>
<feOffset dy="4"/>
<feGaussianBlur stdDeviation="15"/>
<feColorMatrix type="matrix" values="0 0 0 0 0.960784 0 0 0 0 0.501961 0 0 0 0 0.129412 0 0 0 0.7 0"/>
<feBlend mode="normal" in2="BackgroundImageFix" result="effect1_dropShadow_1_525"/>
<feBlend mode="normal" in="SourceGraphic" in2="effect1_dropShadow_1_525" result="shape"/>
</filter>
<filter id="filter1_d_1_525" x="10" y="10" width="120.62" height="160.648" filterUnits="userSpaceOnUse" color-interpolation-filters="sRGB">
<feFlood flood-opacity="0" result="BackgroundImageFix"/>
<feColorMatrix in="SourceAlpha" type="matrix" values="0 0 0 0 0 0 0 0 0 0 0 0 0 0 0 0 0 0 127 0" result="hardAlpha"/>
<feOffset dy="4"/>
<feGaussianBlur stdDeviation="10"/>
<feColorMatrix type="matrix" values="0 0 0 0 0.12549 0 0 0 0 0.0666667 0 0 0 0 0.239216 0 0 0 1 0"/>
<feBlend mode="normal" in2="BackgroundImageFix" result="effect1_dropShadow_1_525"/>
<feBlend mode="normal" in="SourceGraphic" in2="effect1_dropShadow_1_525" result="shape"/>
</filter>
</defs>
</svg>
