<svg width="141" height="181" viewBox="0 0 141 181" fill="none" xmlns="http://www.w3.org/2000/svg">
<g filter="url(#filter0_d_1_524)">
<path d="M70.3101 26C48.0281 26 30 43.2452 30 64.4962C30 85.7472 70.3101 146.649 70.3101 146.649C70.3101 146.649 110.62 85.7472 110.62 64.4962C110.62 43.2452 92.592 26 70.3101 26Z" fill="#F58021"/>
<path fill-rule="evenodd" clip-rule="evenodd" d="M69.6415 41.446C70.5041 41.3969 71.3269 41.5771 72.1736 41.8803C72.1456 41.9616 72.1197 42.0415 72.0942 42.12L72.0942 42.1201C72.0324 42.3106 71.9732 42.4929 71.894 42.667C71.6504 43.2037 71.4029 43.7403 71.1553 44.2769L71.1551 44.2773C70.9075 44.8141 70.6599 45.3508 70.4163 45.8876L70.4156 45.8891L70.4156 45.8891C70.2837 46.1801 70.2199 46.321 70.1115 46.3799C70.0097 46.4352 69.8686 46.4182 69.595 46.3852L69.5456 46.3792C69.2661 46.3465 69.0983 46.2235 69.0584 45.9449C69.0414 45.8276 69.02 45.7096 68.9985 45.5916L68.9985 45.5915L68.9985 45.5915L68.9985 45.5915L68.9985 45.5914L68.9985 45.5914L68.9985 45.5914L68.9985 45.5914L68.9985 45.5913C68.939 45.2643 68.8794 44.9364 68.9146 44.6174C69.0028 43.829 69.1456 43.0457 69.2882 42.2636L69.2883 42.2631L69.2884 42.2627C69.3266 42.0532 69.3647 41.8439 69.4018 41.6345C69.4178 41.5608 69.5536 41.4542 69.6415 41.446ZM64.2583 44.1003L64.2584 44.1006C64.7881 44.9087 65.3063 45.6994 65.8472 46.4762C66.0468 46.7712 66.3184 47.0335 66.7577 46.8532C67.4287 46.5909 67.5964 46.4107 67.3968 45.6895C67.1578 44.813 67.3061 43.9701 67.4549 43.1243L67.455 43.1242L67.455 43.1241L67.455 43.124L67.455 43.1239L67.455 43.1238L67.455 43.1237L67.4551 43.1236L67.4551 43.1235L67.4551 43.1234L67.4551 43.1233L67.4551 43.1232L67.4551 43.1231L67.4552 43.123C67.4704 43.0362 67.4857 42.9493 67.5006 42.8624C67.5565 42.551 67.5485 42.2068 67.4766 41.8954C67.4447 41.7479 67.1571 41.5266 67.0453 41.5512C65.8232 41.8626 64.7528 42.4772 63.7304 43.2967C63.9084 43.5665 64.084 43.8344 64.2583 44.1003ZM61.1196 50.3514C61.6792 50.7706 62.2404 51.191 62.8116 51.6165C62.6199 52.5589 62.1247 53.0915 61.1581 53.1981C59.8242 53.3374 58.6979 52.7801 57.6835 51.9443C57.6276 51.8951 57.6036 51.7148 57.6436 51.6329C57.7029 51.4974 57.762 51.3616 57.8211 51.2257C58.0802 50.6304 58.3399 50.0336 58.6261 49.4531C58.7029 49.2898 58.8287 49.1537 58.9491 49.0233L58.9492 49.0233L58.9492 49.0233L58.9492 49.0232C59.0041 48.9639 59.0578 48.9057 59.1053 48.8467C59.7838 49.3509 60.4505 49.8503 61.1196 50.3514ZM61.478 55.3613C59.9684 54.9761 58.5066 54.5992 56.9331 54.1895C56.8994 54.3797 56.8617 54.5759 56.8232 54.7765L56.8232 54.7766C56.7523 55.1463 56.6785 55.5307 56.6215 55.9185C56.5669 56.2858 56.5307 56.6562 56.4939 57.0338C56.4716 57.2628 56.449 57.4944 56.4219 57.7296C57.6839 58.3769 58.9779 58.5572 60.2559 57.8033C61.1665 57.2789 61.526 56.4102 61.478 55.3613ZM56.4778 59.7037C56.2382 60.9985 56.4299 62.2195 56.8772 63.4077C56.9171 63.506 57.021 63.6126 57.1168 63.6454C59.0019 64.2927 61.1266 62.998 61.4222 61.2525C61.4621 61.0149 61.4781 60.7608 61.4621 60.5232C61.3662 59.4825 61.1745 59.3349 60.1841 59.4825L59.8987 59.525C59.2189 59.6265 58.5384 59.7281 57.8517 59.7857C57.55 59.8082 57.2408 59.7766 56.9215 59.744H56.9215H56.9215H56.9215C56.7758 59.7291 56.628 59.714 56.4778 59.7037ZM61.8454 67.3905C62.4844 65.9974 62.2847 64.9976 61.2064 64.129C60.0881 64.9976 58.7941 65.3172 57.4043 65.3664C57.3084 65.3664 57.1486 65.5057 57.1247 65.6122C56.909 66.6529 57.2125 67.5789 57.7797 68.4312C57.8251 68.4985 57.9119 68.5331 58.01 68.5721L58.01 68.5722L58.0102 68.5722C58.0673 68.595 58.1283 68.6193 58.187 68.6524C58.1594 68.6714 58.1324 68.6903 58.1056 68.709C58.0398 68.7552 57.9757 68.8001 57.9075 68.8409C56.4537 69.7341 55.2795 70.906 54.5846 72.5039C53.674 74.61 53.3465 76.7816 54.1693 79.0187C54.3173 79.4209 54.4535 79.8303 54.5895 80.2391L54.5895 80.2391L54.5896 80.2392L54.5896 80.2392L54.5896 80.2392L54.5896 80.2393L54.5896 80.2393L54.5896 80.2393L54.5896 80.2394L54.5896 80.2394L54.5896 80.2394L54.5897 80.2395L54.5897 80.2395L54.5897 80.2396L54.5897 80.2396L54.5897 80.2396L54.5897 80.2397L54.5897 80.2397C54.7031 80.5804 54.8163 80.9207 54.9361 81.2559C55.3355 82.3868 55.3674 83.5504 55.0479 84.6813C54.1054 87.9837 54.992 91.0158 56.246 94.0068C56.3561 94.2568 56.5358 94.483 56.7089 94.701L56.7173 94.7116C56.9569 95.0148 57.2685 95.1131 57.6439 94.982C58.0193 94.8427 58.2909 94.5887 58.2749 94.1871C58.2589 93.6709 58.195 93.1546 58.0752 92.6547C57.9834 92.2573 57.8715 91.864 57.7597 91.4707L57.7597 91.4706C57.6479 91.0772 57.536 90.6839 57.4442 90.2864C57.1886 89.1638 57.5161 88.2378 58.4107 87.5412C58.449 87.5124 58.4865 87.4828 58.5236 87.4534C58.6028 87.3907 58.6806 87.3292 58.7622 87.279C60.1121 86.4841 60.9428 85.2385 61.6297 83.8536C61.8215 83.46 62.0698 83.0934 62.3177 82.7273L62.3177 82.7273C62.4311 82.5599 62.5443 82.3926 62.6521 82.2229L62.748 82.272C62.7959 82.5015 62.8448 82.7309 62.8938 82.9604C63.0405 83.6487 63.1873 84.3371 63.3071 85.0254C63.8423 88.0165 65.5676 90.2701 67.5645 92.3679C67.7615 92.578 68.0206 92.7324 68.2653 92.8781L68.2754 92.8842C68.6109 93.089 68.9544 93.089 69.2739 92.8186C69.6014 92.54 69.7212 92.1876 69.5774 91.7943C69.4336 91.4173 69.2499 91.0486 69.0263 90.7126C68.7943 90.3689 68.5439 90.0394 68.2937 89.7101L68.2936 89.71C68.0785 89.427 67.8635 89.1441 67.6604 88.8524C66.7099 87.4921 66.6699 86.5333 67.6045 85.173C68.3473 84.0831 68.8585 82.8948 69.3138 81.6083C69.441 81.6689 69.5659 81.7251 69.6882 81.7801L69.6883 81.7801L69.6885 81.7802L69.6886 81.7802C69.8967 81.8738 70.0972 81.964 70.2883 82.0672C72.2533 83.1653 73.4594 84.8943 74.1783 87.0168C74.4703 87.8633 74.7219 88.7254 74.9733 89.5865L74.9733 89.5865C75.0382 89.8091 75.1032 90.0315 75.1688 90.2537C75.4004 91.0404 75.7758 91.7369 76.287 92.3597C76.4731 92.5849 76.6589 92.8101 76.8447 93.0352L76.8521 93.0442L76.8594 93.0531L76.8666 93.0618L76.8716 93.0679C77.7853 94.1753 78.6975 95.2808 79.6259 96.3751C79.8895 96.6865 80.209 96.9815 80.5525 97.2028C81.1755 97.6043 81.7826 97.4814 82.3577 96.916C82.773 96.5062 82.8449 95.9981 82.4695 95.3508C82.2541 94.9779 81.9764 94.64 81.7031 94.3075L81.7025 94.3067L81.7017 94.3058L81.7014 94.3054C81.651 94.244 81.6006 94.1828 81.5509 94.1216C81.3912 93.9249 81.2074 93.7364 81.0157 93.5725C79.3942 92.1548 78.9949 90.2782 79.0668 88.2214C79.0784 87.876 79.1195 87.5307 79.1595 87.1947L79.1595 87.1946L79.1595 87.1945C79.1746 87.0682 79.1894 86.9432 79.2025 86.8201C79.4521 86.7712 79.6987 86.7223 79.94 86.6744L79.9423 86.674L79.9428 86.6739C80.3877 86.5856 80.8143 86.501 81.2074 86.4267C81.3564 86.7634 81.4957 87.1073 81.6353 87.452L81.6353 87.452L81.6354 87.4521C81.9375 88.1981 82.2409 88.9471 82.6452 89.6309C83.2399 90.6388 83.9444 91.5771 84.6487 92.515C84.8148 92.7361 84.9808 92.9572 85.1454 93.1792C85.4249 93.5561 85.8003 93.8593 86.3115 93.7364C86.5831 93.6709 86.7908 92.9169 86.655 92.3843C86.5272 91.8844 86.3755 91.3763 86.1278 90.9338C85.0255 88.9425 84.6022 86.7545 84.3067 84.5338C84.1549 83.4029 83.4999 82.8948 82.3976 83.1161C80.3368 83.534 78.268 83.7389 76.1672 83.5504C76.0235 83.534 75.8797 83.5012 75.7359 83.4685C74.2502 83.1079 73.6591 81.6984 74.4259 80.3299C74.4499 80.2807 74.4739 80.2315 74.5138 80.1906C75.2279 79.4519 75.615 78.5343 76.0036 77.6129C76.141 77.2872 76.2786 76.9611 76.4308 76.6423C76.7344 76.0195 77.3095 75.495 77.8606 75.0361C78.5396 74.4789 79.3703 74.2002 80.225 74.0118C80.3448 73.9872 80.5205 73.8725 80.5445 73.7741C80.5684 73.6594 80.4726 73.4463 80.3767 73.3972C80.3157 73.3676 80.2544 73.3373 80.1927 73.3067C79.8264 73.1254 79.4485 72.9382 79.0588 72.8891C78.4198 72.8071 77.7568 72.8235 77.1098 72.8891C76.3909 72.9629 75.7519 72.7334 75.1528 72.4384C74.5138 72.127 73.9067 71.7009 73.3316 71.2747C71.7581 70.1029 70.1685 68.9638 68.3633 68.1853C66.4303 67.3413 64.4254 67.0627 62.3486 67.3741C62.1968 67.3577 62.0291 67.3659 61.8454 67.3905ZM70.608 65.8085C69.969 66.2183 69.2741 66.3986 68.5232 66.3986C67.8043 66.374 67.1174 66.2265 66.5343 65.7676C65.8873 65.2677 65.6397 64.5302 66.0151 63.8172C66.2547 63.3686 66.5887 62.9752 66.9227 62.5819L66.9227 62.5819C67.034 62.4508 67.1453 62.3197 67.2532 62.1865C67.3091 62.1209 67.4449 62.0964 67.5407 62.1045C69.2741 62.2766 70.616 63.4976 70.9275 65.0382C71.0074 65.4152 70.9035 65.6201 70.608 65.8085ZM61.9334 44.7324C62.844 45.4372 64.122 47.0433 64.9927 48.5593L64.9029 48.6759C64.6968 48.9433 64.5022 49.1957 64.3137 49.4608C64.146 49.6984 63.9463 49.7558 63.6587 49.6656C62.181 49.1821 61.1666 48.1004 60.0962 46.9368C60.7188 46.1917 61.3253 45.4629 61.9319 44.7342L61.9334 44.7324ZM74.3938 49.7641C75.052 49.1825 75.8537 49.0808 76.6602 48.9786L76.6602 48.9786L76.6602 48.9786L76.6602 48.9786L76.6602 48.9786L76.6603 48.9785L76.6603 48.9785L76.6603 48.9785L76.6603 48.9785L76.6603 48.9785L76.6604 48.9785L76.6604 48.9785C76.8424 48.9555 77.0246 48.9324 77.2054 48.9037C77.6208 48.8381 78.0362 48.7152 78.4355 48.5841C78.5234 48.5513 78.6512 48.3874 78.6352 48.3055C78.5154 47.4942 78.2678 46.7321 77.6048 46.2076C77.493 46.1175 77.3093 46.0601 77.1815 46.0765C76.207 46.2322 75.3044 46.5764 74.4976 47.1582C74.4018 47.232 74.3059 47.3057 74.2181 47.3877C73.3874 48.1744 73.4433 49.0676 74.3938 49.7641ZM74.7056 63.2108C73.8989 61.7357 70.3843 60.3262 69.4737 61.1211C69.4737 61.1457 69.4737 61.1867 69.4897 61.1949C70.576 62.1618 71.3588 63.3829 72.1176 64.6203C72.3013 64.9235 72.485 64.9398 72.7726 64.8415C73.4436 64.6121 74.2104 63.9729 74.7056 63.2108ZM80.0731 79.1173C79.9533 79.7483 79.7057 79.9367 79.0667 79.9531C78.9545 79.9317 78.8423 79.9147 78.7307 79.8977H78.7307L78.7306 79.8977L78.7306 79.8977L78.7305 79.8977L78.7305 79.8977L78.7304 79.8977C78.5004 79.8627 78.2727 79.8282 78.0523 79.7564C77.3334 79.5352 77.0219 79.0189 77.1577 78.2568C77.2056 77.9782 77.3094 77.7078 77.4292 77.4537C77.8606 76.5605 78.5715 75.9295 79.3862 75.4215C79.6658 75.2494 80.0012 75.1428 80.3208 75.0855C80.4684 75.0563 80.6323 75.0976 80.795 75.1387C80.8611 75.1553 80.9271 75.172 80.9917 75.1838C80.9782 75.2439 80.9678 75.3074 80.9574 75.3711C80.931 75.5331 80.9042 75.6972 80.824 75.8148C80.3607 76.495 80.2249 77.2571 80.185 78.0601C80.169 78.4125 80.137 78.7731 80.0731 79.1173ZM78.376 77.9628C78.1243 78.0609 77.9342 78.3184 77.9404 78.601C77.9484 78.9698 78.252 79.2648 78.6114 79.2566C78.6877 79.2548 78.7602 79.2399 78.8271 79.214C78.76 79.2396 78.6875 79.2544 78.6116 79.2562C78.2522 79.2644 77.9486 78.9693 77.9406 78.6006C77.9406 78.3183 78.1266 78.0612 78.376 77.9628ZM75.5609 52.1197L75.5613 52.1198L75.5615 52.1198L75.5617 52.1198C76.7782 52.2226 77.9703 52.3233 79.1624 52.4345C79.5139 52.4673 79.6257 52.328 79.6577 51.992C79.7216 51.2709 79.4819 50.7054 78.8908 50.3121C77.8924 49.6565 76.1111 49.7712 75.2005 50.5579C74.7373 50.9513 74.5376 51.4512 74.6334 52.0412C74.9444 52.0676 75.2534 52.0937 75.5609 52.1197ZM73.9145 42.6104C74.873 43.143 75.7836 43.6839 76.4226 44.6099C74.9529 45.4949 73.5311 46.3553 72.1093 47.224C71.8457 46.7978 71.8138 46.511 72.0055 45.9128C72.3699 44.7606 73.0598 43.8003 73.7593 42.8267L73.7596 42.8262L73.7602 42.8254C73.8116 42.7538 73.8631 42.6822 73.9145 42.6104ZM71.7423 59.6306C72.7386 59.9781 73.5392 60.6061 74.3553 61.2463C74.8477 61.6326 75.3458 62.0233 75.8959 62.3594C75.97 62.2398 76.0438 62.121 76.1171 62.003L76.12 61.9985L76.1201 61.9983L76.1207 61.9972L76.1208 61.9972L76.1209 61.9969C76.4179 61.5191 76.7077 61.0528 76.9822 60.5812C77.0222 60.5156 76.9982 60.3272 76.9343 60.278C75.8959 59.4421 74.7776 58.7702 73.4117 58.7046C72.7328 58.6882 72.1257 58.8685 71.7423 59.6306ZM79.3384 54.191C79.3225 54.8623 79.3061 55.5499 78.8832 56.1148C78.7172 56.0588 78.553 56.0021 78.3899 55.9459L78.3899 55.9459L78.3898 55.9459L78.3898 55.9459L78.3896 55.9458C77.9565 55.7964 77.5313 55.6498 77.102 55.5248C76.3431 55.3199 75.5843 55.1314 74.8175 54.9594C74.5299 54.8938 74.466 54.7463 74.506 54.4677C74.6098 53.6974 75.129 53.2221 76.0076 53.1893C77.1339 53.1401 78.1723 53.5253 79.1867 53.9842C79.2586 54.017 79.3385 54.1235 79.3385 54.1891L79.3384 54.191ZM76.5188 79.1328C76.3483 79.3466 76.1957 79.5346 76.0535 79.71C75.8959 79.9042 75.7509 80.0828 75.6082 80.2637C75.5592 80.3259 75.5082 80.3867 75.4573 80.4474C75.3339 80.5944 75.2114 80.7404 75.121 80.9029C74.8254 81.4273 74.9692 82.0009 75.5124 82.2386C75.9437 82.4271 76.4229 82.55 76.8862 82.5992C78.1243 82.7385 79.3464 82.6156 80.5446 82.2468C80.4647 81.6732 80.2091 81.4109 79.65 81.3536C79.3709 81.328 79.0886 81.3184 78.8072 81.3088L78.8069 81.3088L78.8066 81.3088L78.8064 81.3088C78.637 81.303 78.468 81.2972 78.3 81.288C77.2137 81.2225 77.038 81.0504 76.8223 79.9687C76.7848 79.7873 76.7114 79.6096 76.6334 79.4208C76.5951 79.3281 76.5556 79.2327 76.5188 79.1328ZM77.5253 59.0973C76.2473 58.4171 74.9453 57.8271 73.4996 57.5321C73.7072 56.4832 74.3862 56.0161 75.4565 56.1554C76.5349 56.2865 77.4934 56.7454 78.372 57.3764C78.4599 57.442 78.5717 57.5895 78.5477 57.655C78.372 58.1139 78.1883 58.581 77.9567 59.0153C77.9087 59.0973 77.6292 59.1546 77.5253 59.0973ZM81.0316 77.3956C81.0316 78.2478 81.1673 78.3871 81.8064 78.2642C82.07 78.2151 82.3495 78.1003 82.5652 77.9364C83.3959 77.3054 83.6275 75.7812 83.0524 74.9372C82.9166 74.7405 82.7968 74.6586 82.5732 74.8225C81.6466 75.519 81.0715 76.3958 81.0316 77.3956Z" fill="#20113D"/>
</g>
<defs>
<filter id="filter0_d_1_524" x="-9.30225" y="-8.56201" width="160" height="204" filterUnits="userSpaceOnUse" color-interpolation-filters="sRGB">
<feFlood flood-opacity="0" result="BackgroundImageFix"/>
<feColorMatrix in="SourceAlpha" type="matrix" values="0 0 0 0 0 0 0 0 0 0 0 0 0 0 0 0 0 0 127 0" result="hardAlpha"/>
<feOffset dy="4"/>
<feGaussianBlur stdDeviation="15"/>
<feColorMatrix type="matrix" values="0 0 0 0 0.960784 0 0 0 0 0.501961 0 0 0 0 0.129412 0 0 0 0.7 0"/>
<feBlend mode="normal" in2="BackgroundImageFix" result="effect1_dropShadow_1_524"/>
<feBlend mode="normal" in="SourceGraphic" in2="effect1_dropShadow_1_524" result="shape"/>
</filter>
</defs>
</svg>
