<svg width="141" height="181" viewBox="0 0 141 181" fill="none" xmlns="http://www.w3.org/2000/svg">
<g filter="url(#filter0_d_1_527)">
<path d="M70.3101 26C48.0281 26 30 43.2452 30 64.4962C30 85.7472 70.3101 146.649 70.3101 146.649C70.3101 146.649 110.62 85.7472 110.62 64.4962C110.62 43.2452 92.592 26 70.3101 26Z" fill="#F58021"/>
<path fill-rule="evenodd" clip-rule="evenodd" d="M78.7557 61.8312C80.0108 60.2991 80.7307 58.6063 80.7615 56.6418C80.7656 56.428 80.917 56.2172 81.0678 56.0072L81.0678 56.0071C81.1393 55.9076 81.2106 55.8082 81.266 55.7089C81.5592 55.1767 81.8713 54.6514 82.1837 54.1258C82.8938 52.9309 83.6048 51.7344 84.0962 50.4515C85.1667 47.6529 84.5207 45.9355 82.195 44.15C82.3427 42.2781 83.081 40.9931 85.136 40.6225C86.1086 40.4484 87.0521 40.1109 88.0824 39.7423C88.5512 39.5746 89.0379 39.4005 89.5536 39.2324C88.0093 43.9091 86.5449 48.3387 85.0129 52.9721L85.3707 52.8955L85.3728 52.895C87.3662 52.4682 89.19 52.0776 91.0302 51.6871C91.4978 52.5211 91.1348 52.9597 90.4273 53.3613L90.0049 53.5993L90.0048 53.5993C88.194 54.6194 86.3783 55.6423 84.6315 56.7715C84.047 57.1484 83.5424 57.8279 83.2779 58.4766C82.8433 59.5524 82.49 60.6614 82.1274 61.7994L82.1272 61.8C81.9714 62.2891 81.8139 62.7836 81.6474 63.283L78.7557 61.8312ZM84.1023 61.5849C85.905 62.9317 86.6618 65.8291 85.8373 68.0408C85.1175 69.9621 83.4501 70.8765 80.9644 70.5923C80.2495 70.5092 79.5462 70.3498 78.843 70.1905L78.843 70.1905L78.843 70.1905L78.8429 70.1905C78.3963 70.0893 77.9498 69.9881 77.5005 69.9065C74.941 69.4308 72.7507 69.7892 71.2617 70.9382C71.6063 70.9815 71.9016 71.0186 72.3508 71.0742C71.9662 71.8011 71.7705 72.5888 71.5809 73.3524C71.3064 74.4576 71.0446 75.512 70.2404 76.2574C70.6988 76.5792 71.1882 76.8959 71.6888 77.2199C72.8412 77.9656 74.0531 78.7499 75.0825 79.7232C77.4759 81.9843 77.3282 85.3637 74.9779 87.8657C74.2728 87.616 73.5667 87.3663 72.8598 87.1163L72.858 87.1156C70.1726 86.166 67.4759 85.2123 64.783 84.2393C64.3365 84.077 63.9105 83.8557 63.4848 83.6345C63.2946 83.5357 63.1045 83.4369 62.9126 83.3435C60.1255 82.0029 58.6796 79.7541 58.4335 76.6837C58.1197 72.7978 58.8765 69.054 59.7686 65.3472C59.8294 65.3355 59.8795 65.3202 59.9214 65.3074C59.9896 65.2866 60.0358 65.2725 60.0701 65.2916C66.112 68.4177 71.674 67.0029 76.9345 63.3827C77.8266 62.771 78.5034 62.7402 79.3586 63.1911C79.8631 63.4568 80.3738 63.7101 80.8906 63.9448C82.3734 64.6182 83.044 64.3526 83.6408 62.8452C83.74 62.5925 83.832 62.3351 83.9257 62.0729L83.926 62.0723C83.9834 61.9116 84.0415 61.7491 84.1023 61.5849ZM77.897 74.7503C78.2924 73.5473 78.7039 72.2954 79.1435 70.9552C78.6857 70.9404 78.2419 70.9245 77.8088 70.9091L77.8078 70.909L77.8071 70.909C76.4307 70.8599 75.1617 70.8146 73.8892 70.8193C73.6184 70.8193 73.2062 71.1529 73.1078 71.4247C72.7079 72.5516 72.3484 73.6919 72.0018 74.791C71.8791 75.1802 71.758 75.5643 71.6373 75.9407L72.8511 76.8308L72.8514 76.8311C74.0287 77.6945 75.1747 78.5351 76.3687 79.4065C76.868 77.8812 77.3673 76.362 77.8954 74.7553L77.896 74.7534L77.897 74.7503ZM65.6016 93.1465C66.3768 90.8359 67.0967 88.6922 67.8596 86.4249C69.7608 87.0242 71.5573 87.5925 73.477 88.2041C73.373 88.5263 73.2715 88.8433 73.1713 89.1561C72.7911 90.3431 72.4304 91.4695 72.0311 92.5843C71.945 92.819 71.5942 93.1156 71.3604 93.1217C69.9429 93.1549 68.5181 93.1518 67.0115 93.1485C66.5499 93.1475 66.0807 93.1465 65.6016 93.1465ZM57.1454 53.8898L57.1454 53.8899C57.7087 54.7605 58.2558 55.606 58.649 56.5187C59.375 58.2176 59.6888 60.1327 58.2614 61.5907C56.797 63.0796 54.9758 62.4186 53.3516 61.7019C52.3979 61.2818 51.4627 60.7073 50.6752 60.0215C47.6788 57.3959 47.9742 53.3865 51.3027 51.1871C53.4931 49.7415 55.8987 49.5191 58.3229 50.3902C59.375 50.767 59.9656 50.489 60.7901 49.8651C62.1744 48.821 63.6634 47.8263 65.2507 47.1529C68.1548 45.9174 70.9911 46.2942 73.5752 48.1847C74.1474 48.6048 74.7258 49.0125 75.4641 49.2349C74.9596 48.6233 74.4551 48.0179 73.8829 47.3321C75.8148 45.5652 77.9375 44.5273 80.5523 44.966C82.4043 45.2749 83.401 46.5228 83.3579 48.4009C83.3087 50.6682 82.1766 52.4845 80.9399 54.3008C78.5466 51.9285 77.8513 49.1422 79.0572 47.0479C77.8882 47.295 77.2853 48.0179 77.5375 49.309C77.7837 50.5755 78.1897 51.8482 78.7435 53.0096C80.3062 56.3024 79.8202 59.5458 77.0207 61.8625C73.2245 65.0133 68.8254 65.8967 64.0633 64.6858C63.1465 64.4511 62.2729 63.9136 61.4792 63.3638C60.5378 62.7151 60.101 61.8687 60.2487 60.5528C60.3963 59.1752 60.1994 57.6925 59.8487 56.3333C59.3811 54.5541 58.126 53.3494 56.3786 52.676C56.6289 53.0916 56.8888 53.4933 57.1454 53.8898ZM74.429 62.4187C74.4419 62.3628 74.4533 62.306 74.4634 62.2487C74.5142 61.9617 74.5337 61.6589 74.5527 61.3643L74.5527 61.364C74.5606 61.2418 74.5683 61.1211 74.5782 61.0034C74.5105 59.1932 73.9937 57.5808 72.6524 56.3576C71.4711 55.2826 70.3083 55.6348 69.9268 57.1854L69.9131 57.2428C69.8917 57.3337 69.8725 57.4243 69.8554 57.5147C69.5454 59.1522 69.9333 60.6895 70.8619 62.0911L70.8929 62.1378C71.0004 62.2999 71.1108 62.4663 71.2269 62.6277C71.7251 63.3214 72.3284 63.9241 73.2591 63.6849C73.2882 63.6775 73.3178 63.6693 73.3476 63.6603C74.0215 63.4552 74.3 62.9779 74.429 62.4187ZM67.7873 57.2887L67.7873 57.2887C67.5055 57.0278 67.2896 56.8279 67.1273 56.8646C66.8781 56.9207 66.6738 57.1697 66.4685 57.42C66.3799 57.528 66.291 57.6364 66.1982 57.7295C66.2887 57.8128 66.3774 57.914 66.4661 58.0152C66.6672 58.2446 66.8684 58.4742 67.0904 58.4956C67.2861 58.5161 67.5035 58.3357 67.7874 58.1001L67.7874 58.1001C67.9317 57.9803 68.0932 57.8463 68.2778 57.7172C68.0956 57.5742 67.9327 57.4233 67.7873 57.2887ZM76.3378 55.3078L76.3374 55.3076L76.3379 55.3073C76.1167 55.1699 75.9331 55.0375 75.7744 54.923L75.7743 54.923C75.4693 54.7031 75.2562 54.5495 75.0458 54.5536C75.0404 54.5537 75.0349 54.554 75.0294 54.5545C74.7565 54.5725 74.271 55.0568 74.3074 55.2398C74.3751 55.5673 74.7443 56.0121 75.0457 56.0677C75.0736 56.0724 75.1021 56.073 75.1314 56.0698C75.2655 56.0567 75.4184 55.9607 75.6097 55.8222C75.6597 55.7861 75.7123 55.7472 75.7678 55.706C75.9299 55.5858 76.1169 55.4472 76.3378 55.3078Z" fill="#20113D"/>
</g>
<defs>
<filter id="filter0_d_1_527" x="-9.30225" y="-8.56201" width="160" height="204" filterUnits="userSpaceOnUse" color-interpolation-filters="sRGB">
<feFlood flood-opacity="0" result="BackgroundImageFix"/>
<feColorMatrix in="SourceAlpha" type="matrix" values="0 0 0 0 0 0 0 0 0 0 0 0 0 0 0 0 0 0 127 0" result="hardAlpha"/>
<feOffset dy="4"/>
<feGaussianBlur stdDeviation="15"/>
<feColorMatrix type="matrix" values="0 0 0 0 0.960784 0 0 0 0 0.501961 0 0 0 0 0.129412 0 0 0 0.7 0"/>
<feBlend mode="normal" in2="BackgroundImageFix" result="effect1_dropShadow_1_527"/>
<feBlend mode="normal" in="SourceGraphic" in2="effect1_dropShadow_1_527" result="shape"/>
</filter>
</defs>
</svg>
